<svg aria-hidden="true" style="position: absolute; width: 0; height: 0; overflow: hidden;" version="1.1" xmlns="http://www.w3.org/2000/svg" xmlns:xlink="http://www.w3.org/1999/xlink">
<defs>
<symbol id="icon-arrow-down" viewBox="0 0 32 32">
<path d="M27.414 19.414l-10 10c-0.781 0.781-2.047 0.781-2.828 0l-10-10c-0.781-0.781-0.781-2.047 0-2.828s2.047-0.781 2.828 0l6.586 6.586v-19.172c0-1.105 0.895-2 2-2s2 0.895 2 2v19.172l6.586-6.586c0.39-0.39 0.902-0.586 1.414-0.586s1.024 0.195 1.414 0.586c0.781 0.781 0.781 2.047 0 2.828z"></path>
</symbol>
<symbol id="icon-arrow-up" viewBox="0 0 32 32">
<path d="M27.414 12.586l-10-10c-0.781-0.781-2.047-0.781-2.828 0l-10 10c-0.781 0.781-0.781 2.047 0 2.828s2.047 0.781 2.828 0l6.586-6.586v19.172c0 1.105 0.895 2 2 2s2-0.895 2-2v-19.172l6.586 6.586c0.39 0.39 0.902 0.586 1.414 0.586s1.024-0.195 1.414-0.586c0.781-0.781 0.781-2.047 0-2.828z"></path>
</symbol>
<symbol id="icon-coins" viewBox="0 0 32 32">
<path d="M12.009 14.129c2.208-2.815 5.637-4.625 9.497-4.625 0.575 0 1.143 0.039 1.705 0.118v-2.574c-1.744 1.568-6.264 2.685-11.575 2.685-5.278 0-9.785-1.104-11.548-2.665v3.312c0.882 3.612 11.797 3.756 11.921 3.749z"></path>
<path d="M0.082 12.966l-0.007 3.364c0.425 1.868 4.363 3.384 9.465 3.717 0.196-1.587 0.705-3.083 1.463-4.416-5.010-0.085-9.236-1.163-10.921-2.665z"></path>
<path d="M0.075 18.943l-0.007 3.201c0.020-0.020 0.039-0.039 0.059-0.052 0.124 2.064 4.533 3.756 10.196 3.998-0.568-1.398-0.875-2.92-0.875-4.52v-0.007c-4.324-0.268-7.871-1.274-9.373-2.619z"></path>
<path d="M11.075 27.611c-5.108-0.085-9.399-1.215-11.006-2.756l-0.007 3.018c0 2.273 5.18 4.115 11.575 4.115 1.221 0 2.397-0.065 3.501-0.189-1.672-1.045-3.070-2.482-4.063-4.187z"></path>
<path d="M23.224 4.109c0 2.269-5.188 4.109-11.588 4.109s-11.588-1.839-11.588-4.109c0-2.269 5.188-4.109 11.588-4.109s11.588 1.839 11.588 4.109z"></path>
<path d="M21.506 11.117c-5.768 0-10.445 4.677-10.445 10.445s4.677 10.438 10.445 10.438 10.445-4.677 10.445-10.445-4.677-10.438-10.445-10.438zM22.46 27.134v0.66c0 0.529-0.425 0.954-0.954 0.954s-0.954-0.425-0.954-0.954v-0.66c-0.555-0.17-1.071-0.477-1.476-0.908-0.359-0.385-0.34-0.986 0.039-1.346 0.385-0.359 0.967-0.32 1.346 0.039 0.418 0.398 1.11 0.444 1.143 0.444 0.738-0.052 1.326-0.673 1.326-1.424 0-0.784-0.64-1.43-1.424-1.43-1.835 0-3.331-1.496-3.331-3.331 0-1.509 1.006-2.783 2.378-3.194v-0.66c0-0.529 0.425-0.954 0.954-0.954s0.954 0.425 0.954 0.954v0.66c0.555 0.17 1.071 0.477 1.476 0.908 0.359 0.385 0.34 0.986-0.039 1.346-0.385 0.359-1.019 0.372-1.346-0.039-0.346-0.438-1.11-0.444-1.143-0.444-0.738 0.052-1.326 0.673-1.326 1.424 0 0.784 0.64 1.43 1.424 1.43 1.835 0 3.331 1.496 3.331 3.331 0 1.509-1.006 2.783-2.378 3.194z"></path>
</symbol>
<symbol id="icon-clock" viewBox="0 0 32 32">
<path stroke-linejoin="round" stroke-linecap="round" fill="none" stroke="black" stroke-miterlimit="4" stroke-width="2.4" d="M15.999 29.333c7.364 0 13.333-5.969 13.333-13.333s-5.97-13.333-13.333-13.333c-7.364 0-13.333 5.97-13.333 13.333s5.97 13.333 13.333 13.333z"></path>
<path stroke-linejoin="round" stroke-linecap="round" stroke-miterlimit="4" stroke-width="2.4" d="M16 8v8l5.333 2.667"></path>
</symbol>
</defs>
</svg>
